<mxfile host="app.diagrams.net" agent="Mozilla/5.0 (Windows NT 10.0; Win64; x64) AppleWebKit/537.36 (KHTML, like Gecko) Chrome/127.0.0.0 Safari/537.36" version="24.7.7">
  <diagram name="第 1 页" id="c5ULhFlpVbo5xQjqxNRR">
    <mxGraphModel dx="1679" dy="1697" grid="1" gridSize="10" guides="1" tooltips="1" connect="1" arrows="1" fold="1" page="1" pageScale="1" pageWidth="827" pageHeight="1169" math="0" shadow="0">
      <root>
        <mxCell id="0" />
        <mxCell id="1" parent="0" />
        <mxCell id="vr5x9FidwY8XEMQChV_H-2" value="" style="whiteSpace=wrap;html=1;aspect=fixed;fillColor=#d5e8d4;strokeColor=#82b366;" parent="1" vertex="1">
          <mxGeometry x="180" y="-40" width="490" height="490" as="geometry" />
        </mxCell>
        <mxCell id="vr5x9FidwY8XEMQChV_H-17" style="edgeStyle=orthogonalEdgeStyle;rounded=0;orthogonalLoop=1;jettySize=auto;html=1;entryX=0.5;entryY=1;entryDx=0;entryDy=0;" parent="1" source="vr5x9FidwY8XEMQChV_H-3" target="vr5x9FidwY8XEMQChV_H-16" edge="1">
          <mxGeometry relative="1" as="geometry" />
        </mxCell>
        <mxCell id="vr5x9FidwY8XEMQChV_H-3" value="HIDS Library" style="rounded=1;whiteSpace=wrap;html=1;fillColor=#dae8fc;strokeColor=#6c8ebf;" parent="1" vertex="1">
          <mxGeometry x="360" y="250" width="120" height="60" as="geometry" />
        </mxCell>
        <mxCell id="vr5x9FidwY8XEMQChV_H-12" value="" style="group" parent="1" vertex="1" connectable="0">
          <mxGeometry x="210" y="370" width="420" height="50" as="geometry" />
        </mxCell>
        <mxCell id="vr5x9FidwY8XEMQChV_H-4" value="" style="rounded=1;whiteSpace=wrap;html=1;fillColor=#d5e8d4;strokeColor=#82b366;" parent="vr5x9FidwY8XEMQChV_H-12" vertex="1">
          <mxGeometry width="420" height="50" as="geometry" />
        </mxCell>
        <mxCell id="vr5x9FidwY8XEMQChV_H-5" value="HAM" style="rounded=1;whiteSpace=wrap;html=1;fillColor=#fff2cc;strokeColor=#d6b656;" parent="vr5x9FidwY8XEMQChV_H-12" vertex="1">
          <mxGeometry x="14" y="10" width="90" height="30" as="geometry" />
        </mxCell>
        <mxCell id="vr5x9FidwY8XEMQChV_H-6" value="mac log" style="rounded=1;whiteSpace=wrap;html=1;fillColor=#fff2cc;strokeColor=#d6b656;" parent="vr5x9FidwY8XEMQChV_H-12" vertex="1">
          <mxGeometry x="310" y="10" width="90" height="30" as="geometry" />
        </mxCell>
        <mxCell id="vr5x9FidwY8XEMQChV_H-7" value="libpcap" style="rounded=1;whiteSpace=wrap;html=1;fillColor=#fff2cc;strokeColor=#d6b656;" parent="vr5x9FidwY8XEMQChV_H-12" vertex="1">
          <mxGeometry x="110" y="10" width="90" height="30" as="geometry" />
        </mxCell>
        <mxCell id="vr5x9FidwY8XEMQChV_H-8" value="libslog2parse" style="rounded=1;whiteSpace=wrap;html=1;fillColor=#fff2cc;strokeColor=#d6b656;" parent="vr5x9FidwY8XEMQChV_H-12" vertex="1">
          <mxGeometry x="210" y="10" width="90" height="30" as="geometry" />
        </mxCell>
        <mxCell id="vr5x9FidwY8XEMQChV_H-14" style="edgeStyle=orthogonalEdgeStyle;rounded=0;orthogonalLoop=1;jettySize=auto;html=1;entryX=0.5;entryY=1;entryDx=0;entryDy=0;" parent="1" source="vr5x9FidwY8XEMQChV_H-4" target="vr5x9FidwY8XEMQChV_H-3" edge="1">
          <mxGeometry relative="1" as="geometry" />
        </mxCell>
        <mxCell id="vr5x9FidwY8XEMQChV_H-19" style="edgeStyle=orthogonalEdgeStyle;rounded=0;orthogonalLoop=1;jettySize=auto;html=1;entryX=0.5;entryY=1;entryDx=0;entryDy=0;" parent="1" source="vr5x9FidwY8XEMQChV_H-16" target="vr5x9FidwY8XEMQChV_H-18" edge="1">
          <mxGeometry relative="1" as="geometry" />
        </mxCell>
        <mxCell id="vr5x9FidwY8XEMQChV_H-16" value="IDSM" style="rounded=1;whiteSpace=wrap;html=1;fillColor=#dae8fc;strokeColor=#6c8ebf;" parent="1" vertex="1">
          <mxGeometry x="360" y="120" width="120" height="60" as="geometry" />
        </mxCell>
        <mxCell id="vr5x9FidwY8XEMQChV_H-18" value="APP/显示终端" style="rounded=1;whiteSpace=wrap;html=1;fillColor=#dae8fc;strokeColor=#6c8ebf;" parent="1" vertex="1">
          <mxGeometry x="360" y="-10" width="120" height="60" as="geometry" />
        </mxCell>
        <mxCell id="Chw1UzFrNH53qdHap3Ve-14" value="" style="rounded=1;whiteSpace=wrap;html=1;absoluteArcSize=1;arcSize=14;strokeWidth=2;fillColor=#d5e8d4;strokeColor=#82b366;" parent="1" vertex="1">
          <mxGeometry x="-100" y="600" width="910" height="250" as="geometry" />
        </mxCell>
        <mxCell id="Chw1UzFrNH53qdHap3Ve-1" value="access_control_sensor.c" style="shape=module;align=left;spacingLeft=20;align=center;verticalAlign=top;whiteSpace=wrap;html=1;" parent="1" vertex="1">
          <mxGeometry x="630" y="620" width="160" height="50" as="geometry" />
        </mxCell>
        <mxCell id="Chw1UzFrNH53qdHap3Ve-2" value="ids_sensor.h" style="shape=module;align=left;spacingLeft=20;align=center;verticalAlign=top;whiteSpace=wrap;html=1;" parent="1" vertex="1">
          <mxGeometry x="290" y="620" width="130" height="50" as="geometry" />
        </mxCell>
        <mxCell id="Chw1UzFrNH53qdHap3Ve-3" value="file_sensor.c" style="shape=module;align=left;spacingLeft=20;align=center;verticalAlign=top;whiteSpace=wrap;html=1;" parent="1" vertex="1">
          <mxGeometry x="450" y="620" width="140" height="50" as="geometry" />
        </mxCell>
        <mxCell id="Chw1UzFrNH53qdHap3Ve-4" value="network_sensor.c" style="shape=module;align=left;spacingLeft=20;align=center;verticalAlign=top;whiteSpace=wrap;html=1;" parent="1" vertex="1">
          <mxGeometry x="110" y="620" width="130" height="50" as="geometry" />
        </mxCell>
        <mxCell id="Chw1UzFrNH53qdHap3Ve-5" value="process_sensor.c" style="shape=module;align=left;spacingLeft=20;align=center;verticalAlign=top;whiteSpace=wrap;html=1;" parent="1" vertex="1">
          <mxGeometry x="-60" y="620" width="130" height="50" as="geometry" />
        </mxCell>
        <mxCell id="Chw1UzFrNH53qdHap3Ve-6" value="HIDS Library" style="shape=folder;fontStyle=1;spacingTop=10;tabWidth=40;tabHeight=14;tabPosition=left;html=1;whiteSpace=wrap;" parent="1" vertex="1">
          <mxGeometry x="320" y="790" width="70" height="50" as="geometry" />
        </mxCell>
        <mxCell id="Chw1UzFrNH53qdHap3Ve-8" style="edgeStyle=orthogonalEdgeStyle;rounded=0;orthogonalLoop=1;jettySize=auto;html=1;entryX=0.5;entryY=1;entryDx=0;entryDy=0;" parent="1" source="Chw1UzFrNH53qdHap3Ve-6" target="Chw1UzFrNH53qdHap3Ve-2" edge="1">
          <mxGeometry relative="1" as="geometry" />
        </mxCell>
        <mxCell id="Chw1UzFrNH53qdHap3Ve-9" style="edgeStyle=orthogonalEdgeStyle;rounded=0;orthogonalLoop=1;jettySize=auto;html=1;entryX=0.5;entryY=1;entryDx=0;entryDy=0;" parent="1" source="Chw1UzFrNH53qdHap3Ve-6" target="Chw1UzFrNH53qdHap3Ve-5" edge="1">
          <mxGeometry relative="1" as="geometry" />
        </mxCell>
        <mxCell id="Chw1UzFrNH53qdHap3Ve-10" style="edgeStyle=orthogonalEdgeStyle;rounded=0;orthogonalLoop=1;jettySize=auto;html=1;entryX=0.558;entryY=1.07;entryDx=0;entryDy=0;entryPerimeter=0;" parent="1" source="Chw1UzFrNH53qdHap3Ve-6" target="Chw1UzFrNH53qdHap3Ve-4" edge="1">
          <mxGeometry relative="1" as="geometry" />
        </mxCell>
        <mxCell id="Chw1UzFrNH53qdHap3Ve-11" style="edgeStyle=orthogonalEdgeStyle;rounded=0;orthogonalLoop=1;jettySize=auto;html=1;entryX=0.5;entryY=1;entryDx=0;entryDy=0;" parent="1" source="Chw1UzFrNH53qdHap3Ve-6" target="Chw1UzFrNH53qdHap3Ve-3" edge="1">
          <mxGeometry relative="1" as="geometry" />
        </mxCell>
        <mxCell id="Chw1UzFrNH53qdHap3Ve-12" style="edgeStyle=orthogonalEdgeStyle;rounded=0;orthogonalLoop=1;jettySize=auto;html=1;entryX=0.5;entryY=1;entryDx=0;entryDy=0;" parent="1" source="Chw1UzFrNH53qdHap3Ve-6" target="Chw1UzFrNH53qdHap3Ve-1" edge="1">
          <mxGeometry relative="1" as="geometry" />
        </mxCell>
      </root>
    </mxGraphModel>
  </diagram>
</mxfile>
